<svg width="65" height="64" viewBox="0 0 65 64" fill="none" xmlns="http://www.w3.org/2000/svg">
<circle cx="32.5" cy="32" r="31.5" stroke="white"/>
<path d="M32.4657 35.7999C34.5042 35.7999 36.1567 34.1474 36.1567 32.1089C36.1567 30.0705 34.5042 28.418 32.4657 28.418C30.4273 28.418 28.7748 30.0705 28.7748 32.1089C28.7748 34.1474 30.4273 35.7999 32.4657 35.7999Z" fill="white"/>
<path d="M32.4658 24.605C37.4204 24.605 42.0237 25.3161 45.4939 26.5102C49.6752 27.9495 52.2465 30.1317 52.2465 32.1077C52.2465 34.1666 49.5216 36.4854 45.0316 37.9722C41.6371 39.0968 37.1691 39.6848 32.4658 39.6848C27.6429 39.6848 23.0773 39.1334 19.6437 37.96C15.3002 36.4756 12.6838 34.1276 12.6838 32.1077C12.6838 30.1475 15.1392 27.9825 19.262 26.5456C22.7456 25.332 27.4623 24.605 32.4658 24.605V24.605Z" stroke="white" stroke-width="3.20004" stroke-miterlimit="10"/>
<path d="M25.9341 28.3793C28.4089 24.087 31.3254 20.4546 34.0942 18.0456C37.4302 15.1426 40.6052 14.0058 42.3165 14.9926C44.0998 16.0208 44.7475 19.5398 43.7924 24.1736C43.0704 27.6768 41.3481 31.8398 38.9976 35.915C36.5886 40.0926 33.8295 43.7726 31.0985 46.1609C27.6429 49.1822 24.3008 50.2751 22.5517 49.2664C20.8538 48.2869 20.2049 45.0789 21.0185 40.7891C21.7064 37.1615 23.4336 32.7131 25.9341 28.3793V28.3793Z" stroke="white" stroke-width="3.20004" stroke-miterlimit="10"/>
<path d="M25.9401 35.9231C23.4579 31.6344 21.7673 27.2946 21.0623 23.6926C20.2134 19.3528 20.8135 16.0338 22.5236 15.0446C24.3056 14.0127 27.677 15.2093 31.2143 18.3501C33.8892 20.725 36.6349 24.2964 38.9914 28.3679C41.4078 32.5419 43.2191 36.7696 43.9229 40.3276C44.8145 44.8309 44.0924 48.2719 42.3445 49.283C40.6479 50.2649 37.5448 49.2257 34.2344 46.3776C31.4387 43.971 28.4467 40.2532 25.9401 35.9231V35.9231Z" stroke="white" stroke-width="3.20004" stroke-miterlimit="10"/>
</svg>
